<svg width="22" height="20" viewBox="0 0 22 20" fill="none" xmlns="http://www.w3.org/2000/svg">
<path fill-rule="evenodd" clip-rule="evenodd" d="M6.73112 18.8991C6.22404 19.1637 5.6106 19.1171 5.14933 18.7789C4.68807 18.4406 4.45921 17.8696 4.55921 17.3064L5.36855 12.6675L1.96113 9.40211C1.54463 9.00492 1.39199 8.40451 1.56823 7.85663C1.74446 7.30875 2.21852 6.90992 2.78847 6.83004L7.51945 6.15376L9.65533 1.89298C9.90858 1.38199 10.4296 1.05872 10.9999 1.05872C11.5702 1.05872 12.0912 1.38199 12.3445 1.89298L14.4803 6.15376L19.2113 6.83004C19.7813 6.90992 20.2553 7.30875 20.4316 7.85663C20.6078 8.40451 20.4552 9.00492 20.0387 9.40211L16.6312 12.6675L17.4406 17.3074C17.5406 17.8706 17.3117 18.4416 16.8505 18.7799C16.3892 19.1181 15.7757 19.1647 15.2687 18.9001L10.9999 16.6941L6.73112 18.8991Z" stroke="#323232" stroke-width="1.5" stroke-linecap="round" stroke-linejoin="round"/>
</svg>
