<svg width="357" height="44" viewBox="0 0 357 44" fill="none" xmlns="http://www.w3.org/2000/svg">
<rect x="0.5" y="0.5" width="356" height="43" rx="4.5" fill="#FFCBCD" stroke="#D64045"/>
<path d="M0.5 5C0.5 2.51472 2.51472 0.5 5 0.5H10.5V43.5H5C2.51472 43.5 0.5 41.4853 0.5 39V5Z" fill="#D64045" stroke="#D64045"/>
<path d="M62.2 14.21L60.08 9.94H60.85L61.79 11.95L62.08 12.55C62.14 12.67 62.22 12.8433 62.32 13.07C62.4267 13.29 62.5033 13.4433 62.55 13.53H62.58C62.8333 13.0833 63.0967 12.5567 63.37 11.95L64.3 9.94H65.05L62.93 14.21V16.94H62.2V14.21ZM68.0572 17.07C67.6039 17.07 67.1972 16.9567 66.8372 16.73C66.4839 16.4967 66.2039 16.1767 65.9972 15.77C65.7972 15.3567 65.6972 14.8933 65.6972 14.38C65.6972 13.8533 65.7972 13.3867 65.9972 12.98C66.1972 12.5667 66.4739 12.2467 66.8272 12.02C67.1872 11.7867 67.5972 11.67 68.0572 11.67C68.5105 11.67 68.9172 11.7867 69.2772 12.02C69.6372 12.2467 69.9172 12.5667 70.1172 12.98C70.3239 13.3933 70.4272 13.86 70.4272 14.38C70.4272 14.8933 70.3239 15.3567 70.1172 15.77C69.9172 16.1767 69.6372 16.4967 69.2772 16.73C68.9172 16.9567 68.5105 17.07 68.0572 17.07ZM68.0572 16.52C68.3772 16.52 68.6639 16.43 68.9172 16.25C69.1705 16.07 69.3672 15.82 69.5072 15.5C69.6472 15.1733 69.7172 14.8033 69.7172 14.39C69.7172 13.9633 69.6472 13.5867 69.5072 13.26C69.3672 12.9333 69.1705 12.68 68.9172 12.5C68.6639 12.3133 68.3772 12.22 68.0572 12.22C67.7439 12.22 67.4605 12.3133 67.2072 12.5C66.9605 12.68 66.7639 12.9367 66.6172 13.27C66.4772 13.5967 66.4072 13.97 66.4072 14.39C66.4072 14.7967 66.4772 15.1633 66.6172 15.49C66.7639 15.81 66.9605 16.0633 67.2072 16.25C67.4605 16.43 67.7439 16.52 68.0572 16.52ZM73.4461 17.07C72.9194 17.07 72.5294 16.91 72.2761 16.59C72.0228 16.27 71.8961 15.7667 71.8961 15.08V11.8H72.6061V14.97C72.6061 15.49 72.6928 15.8733 72.8661 16.12C73.0394 16.3667 73.3128 16.49 73.6861 16.49C73.9728 16.49 74.2261 16.4167 74.4461 16.27C74.6728 16.1233 74.9261 15.8767 75.2061 15.53V11.8H75.9161V16.94H75.3461L75.2861 16.12H75.2461C74.7261 16.7533 74.1261 17.07 73.4461 17.07ZM79.2024 11.79H79.7624L79.8524 12.59H79.8824C80.4424 11.97 81.0058 11.66 81.5724 11.66C81.9458 11.66 82.2458 11.7433 82.4724 11.91C82.7058 12.07 82.8758 12.3333 82.9824 12.7C83.2891 12.3533 83.5824 12.0933 83.8624 11.92C84.1491 11.7467 84.4458 11.66 84.7524 11.66C85.2724 11.66 85.6591 11.8233 85.9124 12.15C86.1658 12.4767 86.2924 12.9767 86.2924 13.65V16.94H85.5924V13.76C85.5924 13.2467 85.5058 12.8667 85.3324 12.62C85.1591 12.3733 84.8891 12.25 84.5224 12.25C84.0958 12.25 83.6258 12.5467 83.1124 13.14V16.94H82.4024V13.76C82.4024 13.24 82.3158 12.86 82.1424 12.62C81.9758 12.3733 81.7058 12.25 81.3324 12.25C81.1124 12.25 80.8858 12.3233 80.6524 12.47C80.4258 12.6167 80.1758 12.84 79.9024 13.14V16.94H79.2024V11.79ZM89.657 17.07C89.1304 17.07 88.7404 16.91 88.487 16.59C88.2337 16.27 88.107 15.7667 88.107 15.08V11.8H88.817V14.97C88.817 15.49 88.9037 15.8733 89.077 16.12C89.2504 16.3667 89.5237 16.49 89.897 16.49C90.1837 16.49 90.437 16.4167 90.657 16.27C90.8837 16.1233 91.137 15.8767 91.417 15.53V11.8H92.127V16.94H91.557L91.497 16.12H91.457C90.937 16.7533 90.337 17.07 89.657 17.07ZM95.3659 17.07C95.0326 17.07 94.6993 17.01 94.3659 16.89C94.0393 16.77 93.7426 16.6033 93.4759 16.39L93.8259 15.94C94.0793 16.14 94.3293 16.2933 94.5759 16.4C94.8226 16.5 95.0959 16.55 95.3959 16.55C95.7359 16.55 96.0093 16.4667 96.2159 16.3C96.4226 16.1333 96.5259 15.9067 96.5259 15.62C96.5259 15.3467 96.4059 15.12 96.1659 14.94C95.9859 14.82 95.7059 14.6933 95.3259 14.56C94.7659 14.3733 94.3593 14.1667 94.1059 13.94C93.8526 13.7067 93.7259 13.4233 93.7259 13.09C93.7259 12.67 93.8826 12.33 94.1959 12.07C94.5093 11.8033 94.9259 11.67 95.4459 11.67C95.7193 11.67 95.9893 11.72 96.2559 11.82C96.5293 11.9133 96.7693 12.0433 96.9759 12.21L96.6559 12.64C96.4426 12.48 96.2393 12.3633 96.0459 12.29C95.8593 12.2167 95.6626 12.18 95.4559 12.18C95.1426 12.18 94.8859 12.26 94.6859 12.42C94.4926 12.5733 94.3959 12.78 94.3959 13.04C94.3959 13.2 94.4426 13.3367 94.5359 13.45C94.6293 13.5633 94.7459 13.6567 94.8859 13.73C95.0259 13.7967 95.2226 13.88 95.4759 13.98L95.6759 14.06C95.9093 14.14 96.1093 14.22 96.2759 14.3C96.4493 14.3733 96.5959 14.46 96.7159 14.56C97.0493 14.8267 97.2159 15.1667 97.2159 15.58C97.2159 16.02 97.0459 16.38 96.7059 16.66C96.3659 16.9333 95.9193 17.07 95.3659 17.07ZM100.147 17.07C99.6605 17.07 99.3039 16.93 99.0772 16.65C98.8505 16.37 98.7372 15.96 98.7372 15.42V12.35H97.9472V11.84L98.7772 11.79L98.8772 10.31H99.4572V11.8H100.897V12.35H99.4572V15.42C99.4572 15.8 99.5272 16.08 99.6672 16.26C99.8072 16.4333 100.031 16.52 100.337 16.52C100.517 16.52 100.711 16.48 100.917 16.4L101.037 16.88C100.737 17.0067 100.441 17.07 100.147 17.07ZM103.577 11.8H104.147L104.217 12.75H104.247C104.434 12.4167 104.664 12.1533 104.937 11.96C105.217 11.76 105.504 11.66 105.797 11.66C106.024 11.66 106.187 11.69 106.287 11.75L106.157 12.36C106.031 12.3067 105.874 12.28 105.687 12.28C105.401 12.28 105.134 12.3967 104.887 12.63C104.647 12.8567 104.447 13.17 104.287 13.57V16.94H103.577V11.8ZM109.348 17.07C108.868 17.07 108.442 16.9567 108.068 16.73C107.695 16.4967 107.405 16.1767 107.198 15.77C106.998 15.3567 106.898 14.8933 106.898 14.38C106.898 13.8867 106.995 13.4333 107.188 13.02C107.388 12.6 107.662 12.27 108.008 12.03C108.362 11.79 108.755 11.67 109.188 11.67C109.855 11.67 110.358 11.89 110.698 12.33C111.045 12.77 111.218 13.35 111.218 14.07C111.218 14.2633 111.215 14.4067 111.208 14.5H107.588C107.608 15.1133 107.785 15.6067 108.118 15.98C108.452 16.3467 108.892 16.53 109.438 16.53C109.672 16.53 109.895 16.5 110.108 16.44C110.322 16.3733 110.542 16.27 110.768 16.13L110.998 16.57C110.745 16.7233 110.485 16.8467 110.218 16.94C109.958 17.0267 109.668 17.07 109.348 17.07ZM110.598 14.03C110.612 13.4367 110.498 12.9833 110.258 12.67C110.018 12.35 109.668 12.19 109.208 12.19C108.748 12.19 108.372 12.3667 108.078 12.72C107.785 13.0733 107.618 13.51 107.578 14.03H110.598ZM114.379 19.37C113.753 19.37 113.239 19.25 112.839 19.01C112.446 18.7767 112.249 18.44 112.249 18C112.249 17.7933 112.313 17.59 112.439 17.39C112.573 17.19 112.766 17 113.019 16.82V16.76C112.873 16.68 112.759 16.5633 112.679 16.41C112.599 16.25 112.559 16.0767 112.559 15.89C112.559 15.69 112.616 15.5 112.729 15.32C112.849 15.14 112.983 15.0033 113.129 14.91V14.85C112.929 14.6833 112.766 14.4833 112.639 14.25C112.513 14.0167 112.449 13.7533 112.449 13.46C112.449 13.1067 112.529 12.7933 112.689 12.52C112.856 12.2467 113.083 12.0333 113.369 11.88C113.663 11.7267 113.993 11.65 114.359 11.65C114.653 11.65 114.896 11.6933 115.089 11.78H116.869V12.29H115.659C115.833 12.4233 115.969 12.5967 116.069 12.81C116.169 13.0167 116.219 13.24 116.219 13.48C116.219 13.8333 116.136 14.1467 115.969 14.42C115.803 14.6867 115.576 14.8933 115.289 15.04C115.009 15.1867 114.699 15.26 114.359 15.26C114.093 15.26 113.823 15.1867 113.549 15.04C113.423 15.1467 113.323 15.2567 113.249 15.37C113.176 15.4833 113.139 15.6167 113.139 15.77C113.139 15.9967 113.219 16.1667 113.379 16.28C113.546 16.3867 113.803 16.44 114.149 16.44H115.179C115.793 16.44 116.243 16.5367 116.529 16.73C116.816 16.9167 116.959 17.2133 116.959 17.62C116.959 17.98 116.836 18.29 116.589 18.55C116.349 18.8167 116.033 19.02 115.639 19.16C115.246 19.3 114.826 19.37 114.379 19.37ZM114.359 14.82C114.713 14.82 115.003 14.6933 115.229 14.44C115.456 14.18 115.569 13.8533 115.569 13.46C115.569 13.0667 115.456 12.7467 115.229 12.5C115.003 12.2467 114.713 12.12 114.359 12.12C113.999 12.12 113.706 12.2433 113.479 12.49C113.259 12.7367 113.149 13.06 113.149 13.46C113.149 13.8467 113.266 14.17 113.499 14.43C113.733 14.69 114.019 14.82 114.359 14.82ZM114.489 18.92C114.783 18.92 115.066 18.87 115.339 18.77C115.613 18.67 115.833 18.53 115.999 18.35C116.173 18.17 116.259 17.9633 116.259 17.73C116.259 17.4767 116.166 17.29 115.979 17.17C115.799 17.0567 115.513 17 115.119 17H114.169C113.903 17 113.673 16.9667 113.479 16.9C113.279 17.0333 113.126 17.1867 113.019 17.36C112.919 17.5333 112.869 17.71 112.869 17.89C112.869 18.21 113.013 18.46 113.299 18.64C113.586 18.8267 113.983 18.92 114.489 18.92ZM118.459 10.55C118.306 10.55 118.179 10.5067 118.079 10.42C117.979 10.3267 117.929 10.21 117.929 10.07C117.929 9.91667 117.976 9.79667 118.069 9.71C118.169 9.61667 118.299 9.57 118.459 9.57C118.619 9.57 118.749 9.61667 118.849 9.71C118.956 9.80333 119.009 9.92333 119.009 10.07C119.009 10.21 118.956 10.3267 118.849 10.42C118.742 10.5067 118.612 10.55 118.459 10.55ZM118.099 16.94V11.8H118.809V16.94H118.099ZM121.948 17.07C121.615 17.07 121.281 17.01 120.948 16.89C120.621 16.77 120.325 16.6033 120.058 16.39L120.408 15.94C120.661 16.14 120.911 16.2933 121.158 16.4C121.405 16.5 121.678 16.55 121.978 16.55C122.318 16.55 122.591 16.4667 122.798 16.3C123.005 16.1333 123.108 15.9067 123.108 15.62C123.108 15.3467 122.988 15.12 122.748 14.94C122.568 14.82 122.288 14.6933 121.908 14.56C121.348 14.3733 120.941 14.1667 120.688 13.94C120.435 13.7067 120.308 13.4233 120.308 13.09C120.308 12.67 120.465 12.33 120.778 12.07C121.091 11.8033 121.508 11.67 122.028 11.67C122.301 11.67 122.571 11.72 122.838 11.82C123.111 11.9133 123.351 12.0433 123.558 12.21L123.238 12.64C123.025 12.48 122.821 12.3633 122.628 12.29C122.441 12.2167 122.245 12.18 122.038 12.18C121.725 12.18 121.468 12.26 121.268 12.42C121.075 12.5733 120.978 12.78 120.978 13.04C120.978 13.2 121.025 13.3367 121.118 13.45C121.211 13.5633 121.328 13.6567 121.468 13.73C121.608 13.7967 121.805 13.88 122.058 13.98L122.258 14.06C122.491 14.14 122.691 14.22 122.858 14.3C123.031 14.3733 123.178 14.46 123.298 14.56C123.631 14.8267 123.798 15.1667 123.798 15.58C123.798 16.02 123.628 16.38 123.288 16.66C122.948 16.9333 122.501 17.07 121.948 17.07ZM126.729 17.07C126.243 17.07 125.886 16.93 125.659 16.65C125.433 16.37 125.319 15.96 125.319 15.42V12.35H124.529V11.84L125.359 11.79L125.459 10.31H126.039V11.8H127.479V12.35H126.039V15.42C126.039 15.8 126.109 16.08 126.249 16.26C126.389 16.4333 126.613 16.52 126.919 16.52C127.099 16.52 127.293 16.48 127.499 16.4L127.619 16.88C127.319 17.0067 127.023 17.07 126.729 17.07ZM130.862 17.07C130.382 17.07 129.955 16.9567 129.582 16.73C129.209 16.4967 128.919 16.1767 128.712 15.77C128.512 15.3567 128.412 14.8933 128.412 14.38C128.412 13.8867 128.509 13.4333 128.702 13.02C128.902 12.6 129.175 12.27 129.522 12.03C129.875 11.79 130.269 11.67 130.702 11.67C131.369 11.67 131.872 11.89 132.212 12.33C132.559 12.77 132.732 13.35 132.732 14.07C132.732 14.2633 132.729 14.4067 132.722 14.5H129.102C129.122 15.1133 129.299 15.6067 129.632 15.98C129.965 16.3467 130.405 16.53 130.952 16.53C131.185 16.53 131.409 16.5 131.622 16.44C131.835 16.3733 132.055 16.27 132.282 16.13L132.512 16.57C132.259 16.7233 131.999 16.8467 131.732 16.94C131.472 17.0267 131.182 17.07 130.862 17.07ZM132.112 14.03C132.125 13.4367 132.012 12.9833 131.772 12.67C131.532 12.35 131.182 12.19 130.722 12.19C130.262 12.19 129.885 12.3667 129.592 12.72C129.299 13.0733 129.132 13.51 129.092 14.03H132.112ZM134.173 11.8H134.743L134.813 12.75H134.843C135.03 12.4167 135.26 12.1533 135.533 11.96C135.813 11.76 136.1 11.66 136.393 11.66C136.62 11.66 136.783 11.69 136.883 11.75L136.753 12.36C136.626 12.3067 136.47 12.28 136.283 12.28C135.996 12.28 135.73 12.3967 135.483 12.63C135.243 12.8567 135.043 13.17 134.883 13.57V16.94H134.173V11.8ZM140.391 17.07C139.945 17.07 139.585 16.9433 139.311 16.69C139.045 16.4367 138.911 16.09 138.911 15.65C138.911 15.2767 139.021 14.9633 139.241 14.71C139.461 14.45 139.808 14.2433 140.281 14.09C140.761 13.93 141.388 13.8067 142.161 13.72C142.175 12.72 141.785 12.22 140.991 12.22C140.485 12.22 139.961 12.4067 139.421 12.78L139.151 12.31C139.805 11.8833 140.468 11.67 141.141 11.67C141.721 11.67 142.155 11.8467 142.441 12.2C142.735 12.5467 142.881 13.06 142.881 13.74V16.94H142.311L142.241 16.3H142.211C141.605 16.8133 140.998 17.07 140.391 17.07ZM140.621 16.53C140.881 16.53 141.131 16.47 141.371 16.35C141.611 16.23 141.875 16.04 142.161 15.78L142.171 14.16C141.358 14.2667 140.725 14.42 140.271 14.62C139.825 14.82 139.601 15.1433 139.601 15.59C139.601 15.89 139.688 16.1233 139.861 16.29C140.041 16.45 140.295 16.53 140.621 16.53ZM146.048 9.32H146.758V11.39L146.738 12.47C146.985 12.2233 147.255 12.03 147.548 11.89C147.848 11.7433 148.155 11.67 148.468 11.67C149.155 11.67 149.665 11.91 149.998 12.39C150.338 12.8633 150.508 13.4933 150.508 14.28C150.508 14.8067 150.415 15.2833 150.228 15.71C150.048 16.13 149.788 16.4633 149.448 16.71C149.108 16.95 148.715 17.07 148.268 17.07C148.021 17.07 147.755 17.01 147.468 16.89C147.188 16.77 146.935 16.6067 146.708 16.4H146.678L146.608 16.94H146.048V9.32ZM146.758 15.89C146.978 16.09 147.208 16.2433 147.448 16.35C147.695 16.4567 147.928 16.51 148.148 16.51C148.488 16.51 148.778 16.41 149.018 16.21C149.265 16.01 149.451 15.7433 149.578 15.41C149.705 15.07 149.768 14.6967 149.768 14.29C149.768 13.65 149.645 13.1467 149.398 12.78C149.158 12.4133 148.785 12.23 148.278 12.23C147.811 12.23 147.305 12.4867 146.758 13V15.89ZM153.165 17.07C152.718 17.07 152.358 16.9433 152.085 16.69C151.818 16.4367 151.685 16.09 151.685 15.65C151.685 15.2767 151.795 14.9633 152.015 14.71C152.235 14.45 152.582 14.2433 153.055 14.09C153.535 13.93 154.162 13.8067 154.935 13.72C154.948 12.72 154.558 12.22 153.765 12.22C153.258 12.22 152.735 12.4067 152.195 12.78L151.925 12.31C152.578 11.8833 153.242 11.67 153.915 11.67C154.495 11.67 154.928 11.8467 155.215 12.2C155.508 12.5467 155.655 13.06 155.655 13.74V16.94H155.085L155.015 16.3H154.985C154.378 16.8133 153.772 17.07 153.165 17.07ZM153.395 16.53C153.655 16.53 153.905 16.47 154.145 16.35C154.385 16.23 154.648 16.04 154.935 15.78L154.945 14.16C154.132 14.2667 153.498 14.42 153.045 14.62C152.598 14.82 152.375 15.1433 152.375 15.59C152.375 15.89 152.462 16.1233 152.635 16.29C152.815 16.45 153.068 16.53 153.395 16.53ZM157.454 11.8H158.034L158.124 12.56H158.164C158.457 12.2733 158.744 12.0533 159.024 11.9C159.311 11.7467 159.624 11.67 159.964 11.67C160.484 11.67 160.871 11.83 161.124 12.15C161.377 12.47 161.504 12.97 161.504 13.65V16.94H160.794V13.76C160.794 13.24 160.707 12.86 160.534 12.62C160.367 12.3733 160.094 12.25 159.714 12.25C159.441 12.25 159.194 12.3167 158.974 12.45C158.761 12.5833 158.494 12.81 158.174 13.13V16.94H157.454V11.8ZM163.382 16.94V9.31H164.082V14.64L164.112 14.66L166.492 11.8H167.242L165.552 13.83L167.522 16.94H166.762L165.152 14.32L164.082 15.58V16.94H163.382ZM172.072 17.07C171.578 17.07 171.152 16.9567 170.792 16.73C170.432 16.4967 170.155 16.1767 169.962 15.77C169.768 15.3633 169.672 14.9 169.672 14.38C169.672 13.86 169.772 13.3933 169.972 12.98C170.178 12.5667 170.468 12.2467 170.842 12.02C171.215 11.7867 171.645 11.67 172.132 11.67C172.405 11.67 172.658 11.7167 172.892 11.81C173.132 11.9033 173.362 12.05 173.582 12.25L173.232 12.69C173.045 12.53 172.865 12.4133 172.692 12.34C172.518 12.26 172.338 12.22 172.152 12.22C171.798 12.22 171.488 12.32 171.222 12.52C170.955 12.7133 170.752 12.9733 170.612 13.3C170.472 13.6267 170.402 13.9867 170.402 14.38C170.402 14.78 170.472 15.1433 170.612 15.47C170.758 15.7967 170.962 16.0533 171.222 16.24C171.488 16.4267 171.792 16.52 172.132 16.52C172.552 16.52 172.972 16.34 173.392 15.98L173.692 16.44C173.198 16.86 172.658 17.07 172.072 17.07ZM176.261 17.07C175.814 17.07 175.454 16.9433 175.181 16.69C174.914 16.4367 174.781 16.09 174.781 15.65C174.781 15.2767 174.891 14.9633 175.111 14.71C175.331 14.45 175.677 14.2433 176.151 14.09C176.631 13.93 177.257 13.8067 178.031 13.72C178.044 12.72 177.654 12.22 176.861 12.22C176.354 12.22 175.831 12.4067 175.291 12.78L175.021 12.31C175.674 11.8833 176.337 11.67 177.011 11.67C177.591 11.67 178.024 11.8467 178.311 12.2C178.604 12.5467 178.751 13.06 178.751 13.74V16.94H178.181L178.111 16.3H178.081C177.474 16.8133 176.867 17.07 176.261 17.07ZM176.491 16.53C176.751 16.53 177.001 16.47 177.241 16.35C177.481 16.23 177.744 16.04 178.031 15.78L178.041 14.16C177.227 14.2667 176.594 14.42 176.141 14.62C175.694 14.82 175.471 15.1433 175.471 15.59C175.471 15.89 175.557 16.1233 175.731 16.29C175.911 16.45 176.164 16.53 176.491 16.53ZM180.56 11.8H181.13L181.2 12.75H181.23C181.417 12.4167 181.647 12.1533 181.92 11.96C182.2 11.76 182.487 11.66 182.78 11.66C183.007 11.66 183.17 11.69 183.27 11.75L183.14 12.36C183.013 12.3067 182.857 12.28 182.67 12.28C182.383 12.28 182.117 12.3967 181.87 12.63C181.63 12.8567 181.43 13.17 181.27 13.57V16.94H180.56V11.8ZM183.881 14.38C183.881 13.8667 183.977 13.4033 184.171 12.99C184.371 12.5767 184.641 12.2533 184.981 12.02C185.327 11.7867 185.711 11.67 186.131 11.67C186.431 11.67 186.697 11.7233 186.931 11.83C187.164 11.93 187.414 12.0933 187.681 12.32L187.631 11.06V9.32H188.351V16.94H187.781L187.711 16.31H187.671C187.411 16.55 187.134 16.7367 186.841 16.87C186.547 17.0033 186.271 17.07 186.011 17.07C185.344 17.07 184.821 16.8367 184.441 16.37C184.067 15.8967 183.881 15.2333 183.881 14.38ZM184.621 14.37C184.621 15.0367 184.757 15.56 185.031 15.94C185.304 16.32 185.687 16.51 186.181 16.51C186.434 16.51 186.677 16.4467 186.911 16.32C187.151 16.1867 187.391 15.9867 187.631 15.72V12.83C187.404 12.6233 187.177 12.4733 186.951 12.38C186.731 12.28 186.497 12.23 186.251 12.23C185.944 12.23 185.667 12.3267 185.421 12.52C185.174 12.7067 184.977 12.9633 184.831 13.29C184.691 13.6167 184.621 13.9767 184.621 14.37ZM193.204 17.07C192.717 17.07 192.36 16.93 192.134 16.65C191.907 16.37 191.794 15.96 191.794 15.42V12.35H191.004V11.84L191.834 11.79L191.934 10.31H192.514V11.8H193.954V12.35H192.514V15.42C192.514 15.8 192.584 16.08 192.724 16.26C192.864 16.4333 193.087 16.52 193.394 16.52C193.574 16.52 193.767 16.48 193.974 16.4L194.094 16.88C193.794 17.0067 193.497 17.07 193.204 17.07ZM197.051 17.07C196.598 17.07 196.191 16.9567 195.831 16.73C195.478 16.4967 195.198 16.1767 194.991 15.77C194.791 15.3567 194.691 14.8933 194.691 14.38C194.691 13.8533 194.791 13.3867 194.991 12.98C195.191 12.5667 195.468 12.2467 195.821 12.02C196.181 11.7867 196.591 11.67 197.051 11.67C197.505 11.67 197.911 11.7867 198.271 12.02C198.631 12.2467 198.911 12.5667 199.111 12.98C199.318 13.3933 199.421 13.86 199.421 14.38C199.421 14.8933 199.318 15.3567 199.111 15.77C198.911 16.1767 198.631 16.4967 198.271 16.73C197.911 16.9567 197.505 17.07 197.051 17.07ZM197.051 16.52C197.371 16.52 197.658 16.43 197.911 16.25C198.165 16.07 198.361 15.82 198.501 15.5C198.641 15.1733 198.711 14.8033 198.711 14.39C198.711 13.9633 198.641 13.5867 198.501 13.26C198.361 12.9333 198.165 12.68 197.911 12.5C197.658 12.3133 197.371 12.22 197.051 12.22C196.738 12.22 196.455 12.3133 196.201 12.5C195.955 12.68 195.758 12.9367 195.611 13.27C195.471 13.5967 195.401 13.97 195.401 14.39C195.401 14.7967 195.471 15.1633 195.611 15.49C195.758 15.81 195.955 16.0633 196.201 16.25C196.455 16.43 196.738 16.52 197.051 16.52ZM202.318 9.32H203.028V11.39L203.008 12.47C203.254 12.2233 203.524 12.03 203.818 11.89C204.118 11.7433 204.424 11.67 204.738 11.67C205.424 11.67 205.934 11.91 206.268 12.39C206.608 12.8633 206.778 13.4933 206.778 14.28C206.778 14.8067 206.684 15.2833 206.498 15.71C206.318 16.13 206.058 16.4633 205.718 16.71C205.378 16.95 204.984 17.07 204.538 17.07C204.291 17.07 204.024 17.01 203.738 16.89C203.458 16.77 203.204 16.6067 202.978 16.4H202.948L202.878 16.94H202.318V9.32ZM203.028 15.89C203.248 16.09 203.478 16.2433 203.718 16.35C203.964 16.4567 204.198 16.51 204.418 16.51C204.758 16.51 205.048 16.41 205.288 16.21C205.534 16.01 205.721 15.7433 205.848 15.41C205.974 15.07 206.038 14.6967 206.038 14.29C206.038 13.65 205.914 13.1467 205.668 12.78C205.428 12.4133 205.054 12.23 204.548 12.23C204.081 12.23 203.574 12.4867 203.028 13V15.89ZM209.764 17.07C209.238 17.07 208.848 16.91 208.594 16.59C208.341 16.27 208.214 15.7667 208.214 15.08V11.8H208.924V14.97C208.924 15.49 209.011 15.8733 209.184 16.12C209.358 16.3667 209.631 16.49 210.004 16.49C210.291 16.49 210.544 16.4167 210.764 16.27C210.991 16.1233 211.244 15.8767 211.524 15.53V11.8H212.234V16.94H211.664L211.604 16.12H211.564C211.044 16.7533 210.444 17.07 209.764 17.07ZM214.143 19.21C213.917 19.21 213.737 19.1833 213.603 19.13L213.743 18.59C213.783 18.5967 213.847 18.6067 213.933 18.62C214.02 18.64 214.08 18.65 214.113 18.65C214.393 18.65 214.64 18.5467 214.853 18.34C215.073 18.1333 215.25 17.83 215.383 17.43L215.503 16.99L213.423 11.78H214.133L215.233 14.73C215.313 14.93 215.413 15.1867 215.533 15.5C215.653 15.8067 215.747 16.0567 215.813 16.25H215.843C215.91 16.0433 216.003 15.7633 216.123 15.41C216.243 15.05 216.323 14.8233 216.363 14.73L217.323 11.78H218.003L216.023 17.44C215.81 18.0467 215.55 18.4933 215.243 18.78C214.937 19.0667 214.57 19.21 214.143 19.21ZM222.501 17.07C222.047 17.07 221.641 16.9567 221.281 16.73C220.927 16.4967 220.647 16.1767 220.441 15.77C220.241 15.3567 220.141 14.8933 220.141 14.38C220.141 13.8533 220.241 13.3867 220.441 12.98C220.641 12.5667 220.917 12.2467 221.271 12.02C221.631 11.7867 222.041 11.67 222.501 11.67C222.954 11.67 223.361 11.7867 223.721 12.02C224.081 12.2467 224.361 12.5667 224.561 12.98C224.767 13.3933 224.871 13.86 224.871 14.38C224.871 14.8933 224.767 15.3567 224.561 15.77C224.361 16.1767 224.081 16.4967 223.721 16.73C223.361 16.9567 222.954 17.07 222.501 17.07ZM222.501 16.52C222.821 16.52 223.107 16.43 223.361 16.25C223.614 16.07 223.811 15.82 223.951 15.5C224.091 15.1733 224.161 14.8033 224.161 14.39C224.161 13.9633 224.091 13.5867 223.951 13.26C223.811 12.9333 223.614 12.68 223.361 12.5C223.107 12.3133 222.821 12.22 222.501 12.22C222.187 12.22 221.904 12.3133 221.651 12.5C221.404 12.68 221.207 12.9367 221.061 13.27C220.921 13.5967 220.851 13.97 220.851 14.39C220.851 14.7967 220.921 15.1633 221.061 15.49C221.207 15.81 221.404 16.0633 221.651 16.25C221.904 16.43 222.187 16.52 222.501 16.52ZM226.409 11.8H226.979L227.049 12.75H227.079C227.266 12.4167 227.496 12.1533 227.769 11.96C228.049 11.76 228.336 11.66 228.629 11.66C228.856 11.66 229.019 11.69 229.119 11.75L228.989 12.36C228.863 12.3067 228.706 12.28 228.519 12.28C228.233 12.28 227.966 12.3967 227.719 12.63C227.479 12.8567 227.279 13.17 227.119 13.57V16.94H226.409V11.8ZM232.788 17.07C232.454 17.07 232.121 17.01 231.788 16.89C231.461 16.77 231.164 16.6033 230.898 16.39L231.248 15.94C231.501 16.14 231.751 16.2933 231.998 16.4C232.244 16.5 232.518 16.55 232.818 16.55C233.158 16.55 233.431 16.4667 233.638 16.3C233.844 16.1333 233.948 15.9067 233.948 15.62C233.948 15.3467 233.828 15.12 233.588 14.94C233.408 14.82 233.128 14.6933 232.748 14.56C232.188 14.3733 231.781 14.1667 231.528 13.94C231.274 13.7067 231.148 13.4233 231.148 13.09C231.148 12.67 231.304 12.33 231.618 12.07C231.931 11.8033 232.348 11.67 232.868 11.67C233.141 11.67 233.411 11.72 233.678 11.82C233.951 11.9133 234.191 12.0433 234.398 12.21L234.078 12.64C233.864 12.48 233.661 12.3633 233.468 12.29C233.281 12.2167 233.084 12.18 232.878 12.18C232.564 12.18 232.308 12.26 232.108 12.42C231.914 12.5733 231.818 12.78 231.818 13.04C231.818 13.2 231.864 13.3367 231.958 13.45C232.051 13.5633 232.168 13.6567 232.308 13.73C232.448 13.7967 232.644 13.88 232.898 13.98L233.098 14.06C233.331 14.14 233.531 14.22 233.698 14.3C233.871 14.3733 234.018 14.46 234.138 14.56C234.471 14.8267 234.638 15.1667 234.638 15.58C234.638 16.02 234.468 16.38 234.128 16.66C233.788 16.9333 233.341 17.07 232.788 17.07ZM238.069 17.07C237.589 17.07 237.162 16.9567 236.789 16.73C236.416 16.4967 236.126 16.1767 235.919 15.77C235.719 15.3567 235.619 14.8933 235.619 14.38C235.619 13.8867 235.716 13.4333 235.909 13.02C236.109 12.6 236.382 12.27 236.729 12.03C237.082 11.79 237.476 11.67 237.909 11.67C238.576 11.67 239.079 11.89 239.419 12.33C239.766 12.77 239.939 13.35 239.939 14.07C239.939 14.2633 239.936 14.4067 239.929 14.5H236.309C236.329 15.1133 236.506 15.6067 236.839 15.98C237.172 16.3467 237.612 16.53 238.159 16.53C238.392 16.53 238.616 16.5 238.829 16.44C239.042 16.3733 239.262 16.27 239.489 16.13L239.719 16.57C239.466 16.7233 239.206 16.8467 238.939 16.94C238.679 17.0267 238.389 17.07 238.069 17.07ZM239.319 14.03C239.332 13.4367 239.219 12.9833 238.979 12.67C238.739 12.35 238.389 12.19 237.929 12.19C237.469 12.19 237.092 12.3667 236.799 12.72C236.506 13.0733 236.339 13.51 236.299 14.03H239.319ZM242.22 17.07C241.933 17.07 241.72 16.9867 241.58 16.82C241.447 16.6467 241.38 16.3733 241.38 16V9.32H242.09V16.07C242.09 16.21 242.113 16.32 242.16 16.4C242.213 16.48 242.287 16.52 242.38 16.52C242.393 16.52 242.447 16.5133 242.54 16.5L242.63 17.01C242.543 17.05 242.407 17.07 242.22 17.07ZM244.964 17.07C244.678 17.07 244.464 16.9867 244.324 16.82C244.191 16.6467 244.124 16.3733 244.124 16V9.32H244.834V16.07C244.834 16.21 244.858 16.32 244.904 16.4C244.958 16.48 245.031 16.52 245.124 16.52C245.138 16.52 245.191 16.5133 245.284 16.5L245.374 17.01C245.288 17.05 245.151 17.07 244.964 17.07ZM247.208 17.04C247.068 17.04 246.948 16.99 246.848 16.89C246.755 16.79 246.708 16.6667 246.708 16.52C246.708 16.3733 246.755 16.25 246.848 16.15C246.948 16.05 247.068 16 247.208 16C247.362 16 247.485 16.05 247.578 16.15C247.678 16.2433 247.728 16.3667 247.728 16.52C247.728 16.6667 247.678 16.79 247.578 16.89C247.478 16.99 247.355 17.04 247.208 17.04ZM60.91 32.97V25.85H65.29V26.93H62.26V28.94H64.85V30.02H62.26V32.97H60.91ZM67.1343 26.67C66.8943 26.67 66.6976 26.6033 66.5443 26.47C66.391 26.33 66.3143 26.1467 66.3143 25.92C66.3143 25.7 66.391 25.5233 66.5443 25.39C66.6976 25.25 66.8943 25.18 67.1343 25.18C67.3743 25.18 67.571 25.25 67.7243 25.39C67.8776 25.5233 67.9543 25.7 67.9543 25.92C67.9543 26.1467 67.8776 26.33 67.7243 26.47C67.571 26.6033 67.3743 26.67 67.1343 26.67ZM66.4543 32.97V27.62H67.8143V32.97H66.4543ZM69.3642 27.62H70.4742L70.5742 28.31H70.6142C70.8876 28.0567 71.1642 27.8567 71.4442 27.71C71.7242 27.5633 72.0342 27.49 72.3742 27.49C73.4809 27.49 74.0342 28.2 74.0342 29.62V32.97H72.6942V29.79C72.6942 29.3567 72.6309 29.0467 72.5042 28.86C72.3776 28.6733 72.1709 28.58 71.8842 28.58C71.6709 28.58 71.4809 28.63 71.3142 28.73C71.1542 28.8233 70.9542 28.99 70.7142 29.23V32.97H69.3642V27.62ZM76.9054 33.1C76.4254 33.1 76.0387 32.9567 75.7454 32.67C75.4521 32.3767 75.3054 31.9967 75.3054 31.53C75.3054 30.9633 75.5521 30.5233 76.0454 30.21C76.5454 29.8967 77.3454 29.68 78.4454 29.56C78.4321 29.2133 78.3487 28.9533 78.1954 28.78C78.0487 28.6 77.8154 28.51 77.4954 28.51C77.2687 28.51 77.0354 28.5533 76.7954 28.64C76.5554 28.7267 76.2854 28.86 75.9854 29.04L75.5154 28.19C76.2554 27.7167 76.9987 27.48 77.7454 27.48C78.4254 27.48 78.9354 27.6767 79.2754 28.07C79.6221 28.4567 79.7954 29.04 79.7954 29.82V32.97H78.6954L78.5954 32.38V32.39C78.0221 32.8633 77.4587 33.1 76.9054 33.1ZM77.3354 32.1C77.5354 32.1 77.7221 32.0567 77.8954 31.97C78.0687 31.8833 78.2521 31.7433 78.4454 31.55V30.35C77.8721 30.43 77.4221 30.55 77.0954 30.71C76.7687 30.8633 76.6054 31.1033 76.6054 31.43C76.6054 31.65 76.6687 31.8167 76.7954 31.93C76.9221 32.0433 77.1021 32.1 77.3354 32.1ZM81.2783 27.62H82.3883L82.4883 28.31H82.5283C82.8016 28.0567 83.0783 27.8567 83.3583 27.71C83.6383 27.5633 83.9483 27.49 84.2883 27.49C85.3949 27.49 85.9483 28.2 85.9483 29.62V32.97H84.6083V29.79C84.6083 29.3567 84.5449 29.0467 84.4183 28.86C84.2916 28.6733 84.0849 28.58 83.7983 28.58C83.5849 28.58 83.3949 28.63 83.2283 28.73C83.0683 28.8233 82.8683 28.99 82.6283 29.23V32.97H81.2783V27.62ZM89.7695 33.1C89.2495 33.1 88.7895 32.9833 88.3895 32.75C87.9961 32.51 87.6895 32.18 87.4695 31.76C87.2561 31.3333 87.1495 30.8467 87.1495 30.3C87.1495 29.76 87.2661 29.2767 87.4995 28.85C87.7328 28.4167 88.0561 28.08 88.4695 27.84C88.8895 27.6 89.3628 27.48 89.8895 27.48C90.4828 27.48 91.0028 27.6767 91.4495 28.07L90.8195 28.92C90.6595 28.78 90.5128 28.68 90.3795 28.62C90.2461 28.5533 90.1061 28.52 89.9595 28.52C89.5195 28.52 89.1695 28.6867 88.9095 29.02C88.6561 29.3467 88.5295 29.7733 88.5295 30.3C88.5295 30.8133 88.6561 31.2367 88.9095 31.57C89.1695 31.8967 89.5028 32.06 89.9095 32.06C90.2495 32.06 90.6161 31.9067 91.0095 31.6L91.5295 32.46C91.2895 32.6733 91.0161 32.8333 90.7095 32.94C90.4095 33.0467 90.0961 33.1 89.7695 33.1ZM93.2769 26.67C93.0369 26.67 92.8402 26.6033 92.6869 26.47C92.5335 26.33 92.4569 26.1467 92.4569 25.92C92.4569 25.7 92.5335 25.5233 92.6869 25.39C92.8402 25.25 93.0369 25.18 93.2769 25.18C93.5169 25.18 93.7135 25.25 93.8669 25.39C94.0202 25.5233 94.0969 25.7 94.0969 25.92C94.0969 26.1467 94.0202 26.33 93.8669 26.47C93.7135 26.6033 93.5169 26.67 93.2769 26.67ZM92.5969 32.97V27.62H93.9569V32.97H92.5969ZM96.8468 33.1C96.3668 33.1 95.9801 32.9567 95.6868 32.67C95.3935 32.3767 95.2468 31.9967 95.2468 31.53C95.2468 30.9633 95.4935 30.5233 95.9868 30.21C96.4868 29.8967 97.2868 29.68 98.3868 29.56C98.3735 29.2133 98.2901 28.9533 98.1368 28.78C97.9901 28.6 97.7568 28.51 97.4368 28.51C97.2101 28.51 96.9768 28.5533 96.7368 28.64C96.4968 28.7267 96.2268 28.86 95.9268 29.04L95.4568 28.19C96.1968 27.7167 96.9401 27.48 97.6868 27.48C98.3668 27.48 98.8768 27.6767 99.2168 28.07C99.5635 28.4567 99.7368 29.04 99.7368 29.82V32.97H98.6368L98.5368 32.38V32.39C97.9635 32.8633 97.4001 33.1 96.8468 33.1ZM97.2768 32.1C97.4768 32.1 97.6635 32.0567 97.8368 31.97C98.0101 31.8833 98.1935 31.7433 98.3868 31.55V30.35C97.8135 30.43 97.3635 30.55 97.0368 30.71C96.7101 30.8633 96.5468 31.1033 96.5468 31.43C96.5468 31.65 96.6101 31.8167 96.7368 31.93C96.8635 32.0433 97.0435 32.1 97.2768 32.1ZM102.51 33.1C102.063 33.1 101.736 32.9733 101.53 32.72C101.323 32.46 101.22 32.07 101.22 31.55V25.28H102.58V31.61C102.58 31.91 102.673 32.06 102.86 32.06C102.933 32.06 102.996 32.0533 103.05 32.04L103.21 32.99C103.076 33.0633 102.843 33.1 102.51 33.1ZM110.44 25.28V32.97H109.33L109.23 32.41C109.004 32.6233 108.754 32.7933 108.48 32.92C108.214 33.04 107.95 33.1 107.69 33.1C106.99 33.1 106.444 32.8467 106.05 32.34C105.657 31.8333 105.46 31.1533 105.46 30.3C105.46 29.78 105.56 29.3067 105.76 28.88C105.96 28.4467 106.234 28.1067 106.58 27.86C106.927 27.6067 107.317 27.48 107.75 27.48C108.03 27.48 108.274 27.5267 108.48 27.62C108.694 27.7133 108.914 27.86 109.14 28.06L109.09 27.09V25.28H110.44ZM109.09 28.98C108.777 28.6867 108.427 28.54 108.04 28.54C107.82 28.54 107.62 28.6133 107.44 28.76C107.26 28.9 107.117 29.1033 107.01 29.37C106.904 29.63 106.85 29.9333 106.85 30.28C106.85 30.86 106.95 31.3 107.15 31.6C107.357 31.9 107.647 32.05 108.02 32.05C108.227 32.05 108.414 32.0033 108.58 31.91C108.754 31.8167 108.924 31.6667 109.09 31.46V28.98ZM114.37 33.1C113.844 33.1 113.377 32.9833 112.97 32.75C112.564 32.51 112.247 32.18 112.02 31.76C111.8 31.3333 111.69 30.8467 111.69 30.3C111.69 29.78 111.797 29.3067 112.01 28.88C112.23 28.4467 112.53 28.1067 112.91 27.86C113.297 27.6067 113.724 27.48 114.19 27.48C114.917 27.48 115.474 27.7133 115.86 28.18C116.247 28.6467 116.44 29.2633 116.44 30.03C116.44 30.3233 116.424 30.53 116.39 30.65H113C113.054 31.1167 113.214 31.4767 113.48 31.73C113.754 31.9833 114.11 32.11 114.55 32.11C114.757 32.11 114.96 32.08 115.16 32.02C115.36 31.96 115.574 31.8633 115.8 31.73L116.24 32.52C115.974 32.7 115.677 32.8433 115.35 32.95C115.03 33.05 114.704 33.1 114.37 33.1ZM115.28 29.79C115.287 29.3633 115.2 29.0367 115.02 28.81C114.847 28.5833 114.584 28.47 114.23 28.47C113.897 28.47 113.62 28.59 113.4 28.83C113.18 29.0633 113.044 29.3833 112.99 29.79H115.28ZM117.655 27.57H118.775L118.875 28.13V28.14C119.122 27.92 119.385 27.7467 119.665 27.62C119.952 27.4933 120.232 27.43 120.505 27.43C121.185 27.43 121.709 27.6767 122.075 28.17C122.449 28.6633 122.635 29.3267 122.635 30.16C122.635 30.7 122.539 31.1933 122.345 31.64C122.152 32.08 121.879 32.4267 121.525 32.68C121.179 32.9333 120.782 33.06 120.335 33.06C119.869 33.06 119.415 32.87 118.975 32.49L119.015 33.38V35.03H117.655V27.57ZM119.015 31.57C119.349 31.8633 119.692 32.01 120.045 32.01C120.399 32.01 120.685 31.85 120.905 31.53C121.132 31.2033 121.245 30.7533 121.245 30.18C121.245 29.0533 120.875 28.49 120.135 28.49C119.949 28.49 119.769 28.5367 119.595 28.63C119.422 28.7233 119.229 28.8733 119.015 29.08V31.57ZM125.245 33.1C124.765 33.1 124.379 32.9567 124.085 32.67C123.792 32.3767 123.645 31.9967 123.645 31.53C123.645 30.9633 123.892 30.5233 124.385 30.21C124.885 29.8967 125.685 29.68 126.785 29.56C126.772 29.2133 126.689 28.9533 126.535 28.78C126.389 28.6 126.155 28.51 125.835 28.51C125.609 28.51 125.375 28.5533 125.135 28.64C124.895 28.7267 124.625 28.86 124.325 29.04L123.855 28.19C124.595 27.7167 125.339 27.48 126.085 27.48C126.765 27.48 127.275 27.6767 127.615 28.07C127.962 28.4567 128.135 29.04 128.135 29.82V32.97H127.035L126.935 32.38V32.39C126.362 32.8633 125.799 33.1 125.245 33.1ZM125.675 32.1C125.875 32.1 126.062 32.0567 126.235 31.97C126.409 31.8833 126.592 31.7433 126.785 31.55V30.35C126.212 30.43 125.762 30.55 125.435 30.71C125.109 30.8633 124.945 31.1033 124.945 31.43C124.945 31.65 125.009 31.8167 125.135 31.93C125.262 32.0433 125.442 32.1 125.675 32.1ZM132.398 27.49C132.665 27.49 132.871 27.5267 133.018 27.6L132.798 28.71C132.618 28.6567 132.428 28.63 132.228 28.63C131.981 28.63 131.745 28.7233 131.518 28.91C131.298 29.0967 131.118 29.3667 130.978 29.72V32.97H129.618V27.62H130.738L130.828 28.56C131.015 28.22 131.248 27.9567 131.528 27.77C131.808 27.5833 132.098 27.49 132.398 27.49ZM135.768 33.1C135.181 33.1 134.744 32.9333 134.458 32.6C134.171 32.2667 134.028 31.7833 134.028 31.15V28.63H133.258V27.68L134.088 27.62L134.248 26.16H135.378V27.62H136.738V28.63H135.378V31.14C135.378 31.7733 135.624 32.09 136.118 32.09C136.271 32.09 136.458 32.05 136.678 31.97L136.888 32.9C136.488 33.0333 136.114 33.1 135.768 33.1ZM143.97 27.49C145.09 27.49 145.65 28.2 145.65 29.62V32.97H144.29V29.79C144.29 29.3567 144.227 29.0467 144.1 28.86C143.98 28.6733 143.783 28.58 143.51 28.58C143.203 28.58 142.843 28.8 142.43 29.24V32.97H141.08V29.79C141.08 29.3567 141.017 29.0467 140.89 28.86C140.77 28.6733 140.57 28.58 140.29 28.58C139.97 28.58 139.61 28.8 139.21 29.24V32.97H137.86V27.62H138.96L139.07 28.34C139.337 28.0667 139.603 27.8567 139.87 27.71C140.143 27.5633 140.437 27.49 140.75 27.49C141.13 27.49 141.44 27.5667 141.68 27.72C141.92 27.8733 142.107 28.1067 142.24 28.42C142.533 28.1133 142.813 27.8833 143.08 27.73C143.347 27.57 143.643 27.49 143.97 27.49ZM149.527 33.1C149 33.1 148.533 32.9833 148.127 32.75C147.72 32.51 147.403 32.18 147.177 31.76C146.957 31.3333 146.847 30.8467 146.847 30.3C146.847 29.78 146.953 29.3067 147.167 28.88C147.387 28.4467 147.687 28.1067 148.067 27.86C148.453 27.6067 148.88 27.48 149.347 27.48C150.073 27.48 150.63 27.7133 151.017 28.18C151.403 28.6467 151.597 29.2633 151.597 30.03C151.597 30.3233 151.58 30.53 151.547 30.65H148.157C148.21 31.1167 148.37 31.4767 148.637 31.73C148.91 31.9833 149.267 32.11 149.707 32.11C149.913 32.11 150.117 32.08 150.317 32.02C150.517 31.96 150.73 31.8633 150.957 31.73L151.397 32.52C151.13 32.7 150.833 32.8433 150.507 32.95C150.187 33.05 149.86 33.1 149.527 33.1ZM150.437 29.79C150.443 29.3633 150.357 29.0367 150.177 28.81C150.003 28.5833 149.74 28.47 149.387 28.47C149.053 28.47 148.777 28.59 148.557 28.83C148.337 29.0633 148.2 29.3833 148.147 29.79H150.437ZM152.811 27.62H153.921L154.021 28.31H154.061C154.335 28.0567 154.611 27.8567 154.891 27.71C155.171 27.5633 155.481 27.49 155.821 27.49C156.928 27.49 157.481 28.2 157.481 29.62V32.97H156.141V29.79C156.141 29.3567 156.078 29.0467 155.951 28.86C155.825 28.6733 155.618 28.58 155.331 28.58C155.118 28.58 154.928 28.63 154.761 28.73C154.601 28.8233 154.401 28.99 154.161 29.23V32.97H152.811V27.62ZM160.973 33.1C160.386 33.1 159.949 32.9333 159.663 32.6C159.376 32.2667 159.233 31.7833 159.233 31.15V28.63H158.463V27.68L159.293 27.62L159.453 26.16H160.583V27.62H161.943V28.63H160.583V31.14C160.583 31.7733 160.829 32.09 161.323 32.09C161.476 32.09 161.663 32.05 161.883 31.97L162.093 32.9C161.693 33.0333 161.319 33.1 160.973 33.1Z" fill="#D64045"/>
<path d="M39.5029 26.6339L42.004 29.135" stroke="#D64045" stroke-width="1.5" stroke-linecap="round" stroke-linejoin="round"/>
<path d="M42.004 26.6339L39.5029 29.135" stroke="#D64045" stroke-width="1.5" stroke-linecap="round" stroke-linejoin="round"/>
<path d="M33.5002 22.0671V18.9988" stroke="#D64045" stroke-width="1.5" stroke-linecap="round" stroke-linejoin="round"/>
<path d="M33.5004 25.6775C33.4576 25.6775 33.4166 25.6946 33.3865 25.7251C33.3565 25.7555 33.3398 25.7968 33.3404 25.8396C33.3409 25.9281 33.4119 26 33.5004 26.0016C33.5899 26.0016 33.6625 25.9291 33.6625 25.8396C33.6625 25.7501 33.5899 25.6775 33.5004 25.6775" stroke="#D64045" stroke-width="1.5" stroke-linecap="round" stroke-linejoin="round"/>
<path d="M41.5497 23.5187L36.8207 15.3973C36.1308 14.2177 34.8668 13.4927 33.5003 13.4927C32.1338 13.4927 30.8698 14.2177 30.1799 15.3973L24.4775 25.1793C23.8386 26.2785 23.8375 27.6357 24.4746 28.7359C25.1118 29.8361 26.2895 30.5107 27.5608 30.5036H36.5376" stroke="#D64045" stroke-width="1.5" stroke-linecap="round" stroke-linejoin="round"/>
</svg>
